<?xml version="1.0" encoding="utf-8"?>
<!-- Generator: Adobe Illustrator 18.1.1, SVG Export Plug-In . SVG Version: 6.00 Build 0)  -->
<svg version="1.1" id="Layer_1" xmlns="http://www.w3.org/2000/svg" xmlns:xlink="http://www.w3.org/1999/xlink" x="0px" y="0px"
	 viewBox="0 0 42 32" enable-background="new 0 0 42 32" xml:space="preserve">
<g>
	<path fill="none" stroke="#FFFFFF" stroke-width="3" stroke-linecap="round" stroke-linejoin="round" stroke-miterlimit="10" d="
		M-107.8,11.7c0.1-0.5,0.3-1.1,0.3-1.8c0-3.8-3.2-6.8-7.2-6.8c-2.5,0-4.1,1.4-4.1,1.4c-1.1,0.9-2.8,0.9-3.8,0c0,0-1.6-1.4-4.1-1.4
		c-4,0-7.2,3.1-7.2,6.8c0,2.1,1,3.3,1,3.3c0.9,1.1,1.6,2.7,1.6,3.6c0,0,0,0,0.1,0.8c0.1,1,0.2,2,0.4,3c0.3,2,0.7,4,1.4,5.9
		c0.4,1.1,0.8,2.1,1.5,3c0.3,0.3,0.6,0.6,1,0.8c0.4,0.1,0.6,0,0.9-0.2c0.3-0.3,0.5-0.7,0.6-1.1c0.4-1,0.6-2.1,0.9-3.1
		c0.3-1.4,0.7-2.9,1.3-4.2c0.4-0.7,0.8-1.4,1.6-1.8c0.8-0.4,1.9-0.2,2.5,0.4c0.5,0.5,0.9,1.2,1.2,1.9c0.5,1.3,0.8,2.7,1.2,4
		c0.3,1.1,0.5,2.3,1.1,3.4c0.1,0.2,0.3,0.5,0.5,0.6c0.5,0.3,0.8,0.2,1.4-0.2c0.4-0.4,0.7-0.8,1-1.4c0.7-1.2,0.8-1.5,0.8-1.5
		c0.2-0.6,0.4-1.5,0.6-2.4"/>
</g>
<g>
	<g>
		<g>
			<path fill="none" stroke="#FF0000" stroke-width="3" stroke-linecap="round" stroke-linejoin="round" stroke-miterlimit="10" d="
				M-227.6,9.9c0-3.8-3.2-6.8-7.2-6.8c-2.5,0-4.1,1.4-4.1,1.4c-1.1,0.9-2.8,0.9-3.8,0c0,0-1.6-1.4-4.1-1.4c-4,0-7.2,3.1-7.2,6.8
				c0,2.1,1,3.3,1,3.3c0.9,1.1,1.6,2.7,1.6,3.6c0,0,0,0,0.1,0.8c0.1,1,0.2,2,0.4,3c0.3,2,0.7,4,1.4,5.9c0.4,1.1,0.8,2.1,1.5,3
				c0.3,0.3,0.6,0.6,1,0.8c0.4,0.1,0.6,0,0.9-0.2c0.3-0.3,0.5-0.7,0.6-1.1c0.4-1,0.6-2.1,0.9-3.1c0.3-1.4,0.7-2.9,1.3-4.2
				c0.4-0.7,0.8-1.4,1.6-1.8c0.8-0.4,1.9-0.2,2.5,0.4c0.5,0.5,0.9,1.2,1.2,1.9c0.5,1.3,0.8,2.7,1.2,4c0.3,1.1,0.5,2.3,1.1,3.4
				c0.1,0.2,0.3,0.5,0.5,0.6c0.5,0.3,0.8,0.2,1.4-0.2c0.4-0.4,0.7-0.8,1-1.4c0.7-1.2,1.1-2.6,1.5-3.9c0.3-1.2,0.6-2.5,0.8-3.7
				c0.1-0.6,0.2-1.2,0.3-1.9c0.1-1.1,0.2-2.1,0.3-3.2c0-0.3,0-0.3,0-0.3c0-0.3,0.7-1.4,1.6-2.5C-228.5,13.1-227.6,12-227.6,9.9z"/>
			<path fill="none" stroke="#FF0000" stroke-width="3" stroke-linecap="round" stroke-linejoin="round" stroke-miterlimit="10" d="
				M-227.6,9.9c0-3.8-3.2-6.8-7.2-6.8c-2.5,0-4.1,1.4-4.1,1.4c-1.1,0.9-2.8,0.9-3.8,0c0,0-1.6-1.4-4.1-1.4c-4,0-7.2,3.1-7.2,6.8
				c0,2.1,1,3.3,1,3.3c0.9,1.1,1.6,2.7,1.6,3.6c0,0,0,0,0.1,0.8c0.1,1,0.2,2,0.4,3c0.3,2,0.7,4,1.4,5.9c0.4,1.1,0.8,2.1,1.5,3
				c0.3,0.3,0.6,0.6,1,0.8c0.4,0.1,0.6,0,0.9-0.2c0.3-0.3,0.5-0.7,0.6-1.1c0.4-1,0.6-2.1,0.9-3.1c0.3-1.4,0.7-2.9,1.3-4.2
				c0.4-0.7,0.8-1.4,1.6-1.8c0.8-0.4,1.9-0.2,2.5,0.4c0.5,0.5,0.9,1.2,1.2,1.9c0.5,1.3,0.8,2.7,1.2,4c0.3,1.1,0.5,2.3,1.1,3.4
				c0.1,0.2,0.3,0.5,0.5,0.6c0.5,0.3,0.8,0.2,1.4-0.2c0.4-0.4,0.7-0.8,1-1.4c0.7-1.2,1.1-2.6,1.5-3.9c0.3-1.2,0.6-2.5,0.8-3.7
				c0.1-0.6,0.2-1.2,0.3-1.9c0.1-1.1,0.2-2.1,0.3-3.2c0-0.3,0-0.3,0-0.3c0-0.3,0.7-1.4,1.6-2.5C-228.5,13.1-227.6,12-227.6,9.9z"/>
		</g>
	</g>
</g>
<path fill="none" stroke="#FF0000" stroke-width="0.9516" stroke-linecap="round" stroke-miterlimit="10" d="M-373.7,28.1l52.3,50.7
	c0.6,0.6,0.7,1.6,0,2.3c-0.7,0.7-1.6,0.7-2.3,0L-376,30.4L-373.7,28.1z"/>
<rect x="-374.4" y="30.2" transform="matrix(-0.696 0.7181 -0.7181 -0.696 -608.8937 320.916)" fill="#FFFFFF" width="4.1" height="2.7"/>
<g>
	<path fill="#FFFFFF" d="M-498.2,12c-0.3,0-0.6-0.1-0.8-0.3c-0.4-0.4-0.4-1.1,0-1.5l7-7c0.2-0.2,0.5-0.3,0.8-0.3
		c0.3,0,0.6,0.1,0.8,0.3c0.2,0.2,0.3,0.5,0.3,0.8c0,0.3-0.1,0.6-0.3,0.8l-7,7C-497.6,11.9-497.9,12-498.2,12L-498.2,12z"/>
	<g>
		<path d="M-491.2,3.4c0.2,0,0.3,0.1,0.4,0.2c0.2,0.2,0.2,0.6,0,0.8l-7,7c-0.1,0.1-0.3,0.2-0.4,0.2c0,0,0,0,0,0
			c-0.2,0-0.3-0.1-0.4-0.2c-0.2-0.2-0.2-0.6,0-0.8l7-7C-491.5,3.4-491.3,3.4-491.2,3.4 M-491.2,2.4L-491.2,2.4
			c-0.4,0-0.8,0.2-1.1,0.5l-7,7c-0.6,0.6-0.6,1.6,0,2.2c0.3,0.3,0.7,0.5,1.1,0.5c0.4,0,0.8-0.2,1.1-0.5l7-7c0.6-0.6,0.6-1.6,0-2.2
			C-490.3,2.6-490.7,2.4-491.2,2.4L-491.2,2.4z"/>
	</g>
</g>
<g>
	<path fill="#FFFFFF" d="M-497.1,17c-0.3,0-0.6-0.1-0.8-0.3c-0.4-0.4-0.4-1.1,0-1.5l7-7c0.2-0.2,0.5-0.3,0.8-0.3
		c0.3,0,0.6,0.1,0.8,0.3c0.4,0.4,0.4,1.1,0,1.5l-7,7C-496.5,16.9-496.7,17-497.1,17L-497.1,17z"/>
	<g>
		<path d="M-490,8.3c0.2,0,0.3,0.1,0.4,0.2c0.2,0.2,0.2,0.6,0,0.8l-7,7c-0.1,0.1-0.3,0.2-0.4,0.2c0,0,0,0,0,0
			c-0.2,0-0.3-0.1-0.4-0.2c-0.2-0.2-0.2-0.6,0-0.8l7-7C-490.3,8.4-490.2,8.3-490,8.3 M-490,7.3L-490,7.3c-0.4,0-0.8,0.2-1.1,0.5
			l-7,7c-0.6,0.6-0.6,1.6,0,2.2c0.3,0.3,0.7,0.5,1.1,0.5c0.4,0,0.8-0.2,1.1-0.5l7-7c0.6-0.6,0.6-1.6,0-2.2
			C-489.2,7.5-489.6,7.3-490,7.3L-490,7.3z"/>
	</g>
</g>
<g>
	<path fill="#FFFFFF" d="M-497.4,14.3c-0.3,0-0.6-0.1-0.8-0.3c-0.4-0.4-0.4-1.1,0-1.5l7-7c0.2-0.2,0.5-0.3,0.8-0.3
		c0.3,0,0.6,0.1,0.8,0.3c0.4,0.4,0.4,1.1,0,1.5l-7,7C-496.9,14.2-497.1,14.3-497.4,14.3L-497.4,14.3z"/>
	<g>
		<path d="M-490.4,5.7c0.2,0,0.3,0.1,0.4,0.2c0.2,0.2,0.2,0.6,0,0.8l-7,7c-0.1,0.1-0.3,0.2-0.4,0.2c0,0,0,0,0,0
			c-0.2,0-0.3-0.1-0.4-0.2c-0.2-0.2-0.2-0.6,0-0.8l7-7C-490.7,5.7-490.6,5.7-490.4,5.7 M-490.4,4.7L-490.4,4.7
			c-0.4,0-0.8,0.2-1.1,0.5l-7,7c-0.6,0.6-0.6,1.6,0,2.2c0.3,0.3,0.7,0.5,1.1,0.5c0.4,0,0.8-0.2,1.1-0.5l7-7c0.6-0.6,0.6-1.6,0-2.2
			C-489.6,4.8-490,4.7-490.4,4.7L-490.4,4.7z"/>
	</g>
</g>
<g>
	<path fill="#FFFFFF" d="M-501.8,7.8c-0.3,0-0.6-0.1-0.8-0.3s-0.3-0.5-0.3-0.8c0-0.3,0.1-0.6,0.3-0.8l7-7c0.2-0.2,0.5-0.3,0.8-0.3
		c0.3,0,0.6,0.1,0.8,0.3c0.4,0.4,0.4,1.1,0,1.5l-7,7C-501.2,7.7-501.5,7.8-501.8,7.8L-501.8,7.8z"/>
	<g>
		<path d="M-494.7-0.8c0.2,0,0.3,0.1,0.4,0.2c0.2,0.2,0.2,0.6,0,0.8l-7,7c-0.1,0.1-0.3,0.2-0.4,0.2c0,0,0,0,0,0
			c-0.2,0-0.3-0.1-0.4-0.2c-0.2-0.2-0.2-0.6,0-0.8l7-7C-495-0.8-494.9-0.8-494.7-0.8 M-494.7-1.8L-494.7-1.8c-0.4,0-0.8,0.2-1.1,0.5
			l-7,7c-0.6,0.6-0.6,1.6,0,2.2c0.3,0.3,0.7,0.5,1.1,0.5c0.4,0,0.8-0.2,1.1-0.5l7-7c0.6-0.6,0.6-1.6,0-2.2
			C-493.9-1.6-494.3-1.8-494.7-1.8L-494.7-1.8z"/>
	</g>
</g>
<g>
	<path fill="#FFFFFF" d="M-499.8,9.8c-0.3,0-0.6-0.1-0.8-0.3c-0.4-0.4-0.4-1.1,0-1.5l7-7c0.2-0.2,0.5-0.3,0.8-0.3
		c0.3,0,0.6,0.1,0.8,0.3c0.4,0.4,0.4,1.1,0,1.5l-7,7C-499.3,9.7-499.5,9.8-499.8,9.8L-499.8,9.8z"/>
	<g>
		<path d="M-492.8,1.1c0.2,0,0.3,0.1,0.4,0.2c0.2,0.2,0.2,0.6,0,0.8l-7,7c-0.1,0.1-0.3,0.2-0.4,0.2c0,0,0,0,0,0
			c-0.2,0-0.3-0.1-0.4-0.2c-0.2-0.2-0.2-0.6,0-0.8l7-7C-493.1,1.2-492.9,1.1-492.8,1.1 M-492.8,0.1L-492.8,0.1
			c-0.4,0-0.8,0.2-1.1,0.5l-7,7c-0.6,0.6-0.6,1.6,0,2.2c0.3,0.3,0.7,0.5,1.1,0.5c0.4,0,0.8-0.2,1.1-0.5l7-7c0.6-0.6,0.6-1.6,0-2.2
			C-492,0.3-492.4,0.1-492.8,0.1L-492.8,0.1z"/>
	</g>
</g>
<g>
	<path fill="#FFFFFF" d="M-503.9,6.1c-0.3,0-0.6-0.1-0.8-0.3c-0.4-0.4-0.4-1.1,0-1.5l7-7c0.2-0.2,0.5-0.3,0.8-0.3
		c0.3,0,0.6,0.1,0.8,0.3c0.2,0.2,0.3,0.5,0.3,0.8c0,0.3-0.1,0.6-0.3,0.8l-7,7C-503.3,6-503.6,6.1-503.9,6.1L-503.9,6.1z"/>
	<g>
		<path d="M-496.9-2.6c0.2,0,0.3,0.1,0.4,0.2c0.2,0.2,0.2,0.6,0,0.8l-7,7c-0.1,0.1-0.3,0.2-0.4,0.2c0,0,0,0,0,0
			c-0.2,0-0.3-0.1-0.4-0.2c-0.2-0.2-0.2-0.6,0-0.8l7-7C-497.2-2.5-497-2.6-496.9-2.6 M-496.9-3.5L-496.9-3.5c-0.4,0-0.8,0.2-1.1,0.5
			l-7,7c-0.6,0.6-0.6,1.6,0,2.2c0.3,0.3,0.7,0.5,1.1,0.5c0.4,0,0.8-0.2,1.1-0.5l7-7c0.6-0.6,0.6-1.6,0-2.2
			C-496.1-3.4-496.4-3.5-496.9-3.5L-496.9-3.5z"/>
	</g>
</g>
<g>
	<path fill="#FFFFFF" d="M-505,8c-0.3,0-0.6-0.1-0.8-0.3c-0.4-0.4-0.4-1.1,0-1.5l7-7c0.2-0.2,0.5-0.3,0.8-0.3c0.3,0,0.6,0.1,0.8,0.3
		c0.4,0.4,0.4,1.1,0,1.5l-7,7C-504.5,7.8-504.7,7.9-505,8L-505,8z"/>
	<g>
		<path d="M-498-0.7c0.2,0,0.3,0.1,0.4,0.2c0.2,0.2,0.2,0.6,0,0.8l-7,7c-0.1,0.1-0.3,0.2-0.4,0.2c0,0,0,0,0,0
			c-0.2,0-0.3-0.1-0.4-0.2c-0.2-0.2-0.2-0.6,0-0.8l7-7C-498.3-0.7-498.2-0.7-498-0.7 M-498-1.7L-498-1.7c-0.4,0-0.8,0.2-1.1,0.5
			l-7,7c-0.6,0.6-0.6,1.6,0,2.2c0.3,0.3,0.7,0.5,1.1,0.5c0.4,0,0.8-0.2,1.1-0.5l7-7c0.6-0.6,0.6-1.6,0-2.2
			C-497.2-1.5-497.6-1.7-498-1.7L-498-1.7z"/>
	</g>
</g>
<g>
	<path fill="#FFFFFF" d="M-503.2,9.3c-0.3,0-0.6-0.1-0.8-0.3c-0.4-0.4-0.4-1.1,0-1.5l7-7c0.2-0.2,0.5-0.3,0.8-0.3
		c0.3,0,0.6,0.1,0.8,0.3c0.4,0.4,0.4,1.1,0,1.5l-7,7C-502.6,9.2-502.9,9.3-503.2,9.3L-503.2,9.3z"/>
	<g>
		<path d="M-496.1,0.6c0.2,0,0.3,0.1,0.4,0.2c0.2,0.2,0.2,0.6,0,0.8l-7,7c-0.1,0.1-0.3,0.2-0.4,0.2c0,0,0,0,0,0
			c-0.2,0-0.3-0.1-0.4-0.2c-0.2-0.2-0.2-0.6,0-0.8l7-7C-496.4,0.7-496.3,0.6-496.1,0.6 M-496.1-0.4L-496.1-0.4
			c-0.4,0-0.8,0.2-1.1,0.5l-7,7c-0.6,0.6-0.6,1.6,0,2.2c0.3,0.3,0.7,0.5,1.1,0.5c0.4,0,0.8-0.2,1.1-0.5l7-7c0.6-0.6,0.6-1.6,0-2.2
			C-495.3-0.2-495.7-0.4-496.1-0.4L-496.1-0.4z"/>
	</g>
</g>
<g>
	<path fill="#FFFFFF" d="M-501.5,11.1c-0.3,0-0.6-0.1-0.8-0.3c-0.4-0.4-0.4-1.1,0-1.5l7-7c0.2-0.2,0.5-0.3,0.8-0.3
		c0.3,0,0.6,0.1,0.8,0.3c0.4,0.4,0.4,1.1,0,1.5l-7,7C-500.9,10.9-501.2,11-501.5,11.1L-501.5,11.1z"/>
	<g>
		<path d="M-494.5,2.4c0.2,0,0.3,0.1,0.4,0.2c0.2,0.2,0.2,0.6,0,0.8l-7,7c-0.1,0.1-0.3,0.2-0.4,0.2c0,0,0,0,0,0
			c-0.2,0-0.3-0.1-0.4-0.2c-0.2-0.2-0.2-0.6,0-0.8l7-7C-494.8,2.4-494.6,2.4-494.5,2.4 M-494.5,1.4L-494.5,1.4
			c-0.4,0-0.8,0.2-1.1,0.5l-7,7c-0.6,0.6-0.6,1.6,0,2.2c0.3,0.3,0.7,0.5,1.1,0.5c0.4,0,0.8-0.2,1.1-0.5l7-7c0.6-0.6,0.6-1.6,0-2.2
			C-493.6,1.6-494,1.4-494.5,1.4L-494.5,1.4z"/>
	</g>
</g>
<path stroke="#000000" stroke-width="0.9129" stroke-linecap="round" stroke-miterlimit="10" d="M-510.2,44.8l48.2,46.7
	c0.6,0.6,0.6,1.5-0.1,2.2c-0.7,0.7-1.6,0.7-2.2,0.1l-48.2-46.7L-510.2,44.8z"/>
<path fill="#FFFFFF" stroke="#000000" stroke-linecap="round" stroke-miterlimit="10" d="M-593.7,21v2.7c0,4.8,5.9,8.8,13,8.8
	c7.1,0,13-3.8,13-8.6V21"/>
<ellipse fill="#FFFFFF" stroke="#000000" stroke-miterlimit="10" cx="-580.7" cy="20.7" rx="12.9" ry="8.7"/>
<rect x="-515.5" y="43" transform="matrix(-0.696 0.7181 -0.7181 -0.696 -839.2277 443.1287)" width="4.1" height="1.9"/>
<path fill="#FFFFFF" stroke="#000000" stroke-width="2" stroke-linecap="round" stroke-miterlimit="10" d="M-512.8,2.2l-7.2,6.8
	c-3.2,2.9-2.4,9.3,2,14.1s10.5,6.5,13.7,3.6l7.4-6.9"/>
<path stroke="#000000" stroke-width="0.9827" stroke-linecap="round" stroke-miterlimit="10" d="M-534.7,16.9l-2.4,2.1
	c-4.3,3.9-3.1,12.3,2.6,18.7s13.9,8.6,18.2,4.7l2.5-2.3"/>
<ellipse transform="matrix(0.6683 0.7439 -0.7439 0.6683 -152.7597 399.1107)" stroke="#000000" stroke-width="0.9827" stroke-linecap="round" stroke-miterlimit="10" cx="-523.9" cy="28.3" rx="15.6" ry="10.5"/>
<ellipse transform="matrix(0.6683 0.7439 -0.7439 0.6683 -152.7597 399.1107)" fill="#FFFFFF" stroke="#000000" stroke-width="0.9827" stroke-linecap="round" stroke-miterlimit="10" cx="-523.9" cy="28.3" rx="13.5" ry="8.5"/>
<path fill="#FFFFFF" stroke="#000000" stroke-width="2" stroke-linecap="round" stroke-miterlimit="10" d="M-504.6,24.1
	c1.5-1.6,4.1-1.6,5.7-0.1l44,42.7c0.6,0.6-0.1,2.2-1.7,3.9c-1.6,1.7-3.2,2.4-3.8,1.9l-44-42.7C-506.1,28.3-506.1,25.7-504.6,24.1
	L-504.6,24.1z"/>
<rect x="-499" y="29.9" transform="matrix(-0.696 0.7181 -0.7181 -0.696 -817.4811 411.6096)" width="6.3" height="5.8"/>
<g>
	<path fill="#FFFFFF" d="M-496.5,19.3c-0.3,0-0.6-0.1-0.8-0.3c-0.4-0.4-0.4-1.1,0-1.5l4.9-4.9c0.2-0.2,0.5-0.3,0.8-0.3
		c0.3,0,0.6,0.1,0.8,0.3c0.4,0.4,0.4,1.1,0,1.5l-4.9,4.9C-496,19.2-496.2,19.3-496.5,19.3L-496.5,19.3z"/>
	<g>
		<path d="M-491.6,12.8c0.2,0,0.3,0.1,0.4,0.2c0.2,0.2,0.2,0.6,0,0.8l-4.9,4.9c-0.1,0.1-0.3,0.2-0.4,0.2c0,0,0,0,0,0
			c-0.2,0-0.3-0.1-0.4-0.2c-0.2-0.2-0.2-0.6,0-0.8l4.9-4.9C-491.9,12.8-491.8,12.8-491.6,12.8 M-491.6,11.8L-491.6,11.8
			c-0.4,0-0.8,0.2-1.1,0.5l-4.9,4.9c-0.6,0.6-0.6,1.6,0,2.2c0.3,0.3,0.7,0.5,1.1,0.5c0.4,0,0.8-0.2,1.1-0.5l4.9-4.9
			c0.6-0.6,0.6-1.6,0-2.2C-490.8,12-491.2,11.8-491.6,11.8L-491.6,11.8z"/>
	</g>
</g>
<g>
	<path fill="#FFFFFF" d="M-495.3,17.4c-0.3,0-0.6-0.1-0.8-0.3c-0.4-0.4-0.4-1.1,0-1.5l4.9-4.9c0.2-0.2,0.5-0.3,0.8-0.3
		c0.3,0,0.6,0.1,0.8,0.3c0.4,0.4,0.4,1.1,0,1.5l-4.9,4.9C-494.7,17.2-495,17.4-495.3,17.4L-495.3,17.4z"/>
	<g>
		<path d="M-490.4,10.8c0.2,0,0.3,0.1,0.4,0.2c0.2,0.2,0.2,0.6,0,0.8l-4.9,4.9c-0.1,0.1-0.3,0.2-0.4,0.2c0,0,0,0,0,0
			c-0.2,0-0.3-0.1-0.4-0.2c-0.2-0.2-0.2-0.6,0-0.8l4.9-4.9C-490.7,10.9-490.5,10.8-490.4,10.8 M-490.4,9.8L-490.4,9.8
			c-0.4,0-0.8,0.2-1.1,0.5l-4.9,4.9c-0.6,0.6-0.6,1.6,0,2.2c0.3,0.3,0.7,0.5,1.1,0.5c0.4,0,0.8-0.2,1.1-0.5l4.9-4.9
			c0.6-0.6,0.6-1.6,0-2.2C-489.5,10-489.9,9.8-490.4,9.8L-490.4,9.8z"/>
	</g>
</g>
<g>
	<path fill="#FFFFFF" d="M-506.5,4.8c-0.3,0-0.6-0.1-0.8-0.3c-0.4-0.4-0.4-1.1,0-1.5l7-7c0.2-0.2,0.5-0.3,0.8-0.3
		c0.3,0,0.6,0.1,0.8,0.3c0.4,0.4,0.4,1.1,0,1.5l-7,7C-505.9,4.7-506.2,4.8-506.5,4.8L-506.5,4.8z"/>
	<g>
		<path d="M-499.5-3.8c0.2,0,0.3,0.1,0.4,0.2c0.2,0.2,0.2,0.6,0,0.8l-7,7c-0.1,0.1-0.3,0.2-0.4,0.2c0,0,0,0,0,0
			c-0.2,0-0.3-0.1-0.4-0.2c-0.2-0.2-0.2-0.6,0-0.8l7-7C-499.8-3.8-499.6-3.8-499.5-3.8 M-499.5-4.8L-499.5-4.8
			c-0.4,0-0.8,0.2-1.1,0.5l-7,7c-0.6,0.6-0.6,1.6,0,2.2c0.3,0.3,0.7,0.5,1.1,0.5c0.4,0,0.8-0.2,1.1-0.5l7-7c0.6-0.6,0.6-1.6,0-2.2
			C-498.7-4.6-499.1-4.8-499.5-4.8L-499.5-4.8z"/>
	</g>
</g>
<g>
	<path fill="#FFFFFF" d="M-509.3,4.2c-0.3,0-0.6-0.1-0.8-0.3c-0.4-0.4-0.4-1.1,0-1.5l7-7c0.2-0.2,0.5-0.3,0.8-0.3
		c0.3,0,0.6,0.1,0.8,0.3c0.4,0.4,0.4,1.1,0,1.5l-7,7C-508.7,4.1-509,4.2-509.3,4.2L-509.3,4.2z"/>
	<g>
		<path d="M-502.2-4.5c0.2,0,0.3,0.1,0.4,0.2c0.2,0.2,0.2,0.6,0,0.8l-7,7c-0.1,0.1-0.3,0.2-0.4,0.2c0,0,0,0,0,0
			c-0.2,0-0.3-0.1-0.4-0.2c-0.2-0.2-0.2-0.6,0-0.8l7-7C-502.5-4.4-502.4-4.5-502.2-4.5 M-502.2-5.5L-502.2-5.5
			c-0.4,0-0.8,0.2-1.1,0.5l-7,7c-0.6,0.6-0.6,1.6,0,2.2c0.3,0.3,0.7,0.5,1.1,0.5c0.4,0,0.8-0.2,1.1-0.5l7-7c0.6-0.6,0.6-1.6,0-2.2
			C-501.4-5.3-501.8-5.5-502.2-5.5L-502.2-5.5z"/>
	</g>
</g>
<g>
	<path fill="#FFFFFF" d="M-511.7,4.3l-0.1-0.3c-0.1-0.3,0-0.5,0.2-0.7c0.2-0.2,0.4-0.5,0.6-0.6c-0.2,0.1-0.4,0.3-0.7,0.5
		c-0.3,0.2-0.4,0.3-0.6,0.3l-0.3,0l-0.3-0.6l7.3-7.2c0.2-0.2,0.5-0.3,0.8-0.3c0.3,0,0.6,0.1,0.8,0.3c0.4,0.4,0.4,1.1,0,1.5l-7.2,7.1
		l-0.2,0H-511.7z"/>
	<g>
		<path d="M-504.7-4.2c0.2,0,0.3,0.1,0.4,0.2c0.2,0.2,0.2,0.6,0,0.8l-7,7c0,0,0,0,0,0c0,0,1.9-2,1.7-2c0,0,0,0,0,0c0,0,0,0,0,0
			c-0.2,0-0.3-0.1-0.4-0.2c0,0,0,0-0.1,0c-0.4,0-2,1.3-2.1,1.3c0,0,0,0,0,0l7-7C-505-4.2-504.9-4.2-504.7-4.2 M-504.7-5.2
			L-504.7-5.2c-0.4,0-0.8,0.2-1.1,0.5l-7,7l-0.5,0.5l0.2,0.6l0.3,0.6l0.5,0c0,0.1,0,0.2,0.1,0.2l0.3,0.6l0.6,0h0.4l0.3-0.3l7-7
			c0.6-0.6,0.6-1.6,0-2.2C-503.9-5.1-504.3-5.2-504.7-5.2L-504.7-5.2z"/>
	</g>
</g>
<g>
	<path fill="#FFFFFF" d="M-511.7,3.5c-0.3,0-0.6-0.1-0.8-0.3c-0.4-0.4-0.4-1.1,0-1.5l4.9-4.9c0.2-0.2,0.5-0.3,0.8-0.3
		c0.3,0,0.6,0.1,0.8,0.3c0.4,0.4,0.4,1.1,0,1.5l-4.9,4.9C-511.1,3.3-511.4,3.5-511.7,3.5L-511.7,3.5z"/>
	<g>
		<path d="M-506.8-3.1c0.2,0,0.3,0.1,0.4,0.2c0.2,0.2,0.2,0.6,0,0.8l-4.9,4.9c-0.1,0.1-0.3,0.2-0.4,0.2c0,0,0,0,0,0
			c-0.2,0-0.3-0.1-0.4-0.2c-0.2-0.2-0.2-0.6,0-0.8l4.9-4.9C-507.1-3-506.9-3.1-506.8-3.1 M-506.8-4.1L-506.8-4.1
			c-0.4,0-0.8,0.2-1.1,0.5l-4.9,4.9c-0.6,0.6-0.6,1.6,0,2.2c0.3,0.3,0.7,0.5,1.1,0.5c0.4,0,0.8-0.2,1.1-0.5l4.9-4.9
			c0.6-0.6,0.6-1.6,0-2.2C-505.9-3.9-506.3-4.1-506.8-4.1L-506.8-4.1z"/>
	</g>
</g>
<g>
	<path fill="#FFFFFF" d="M-507,7.1c-0.3,0-0.6-0.1-0.8-0.3c-0.4-0.4-0.4-1.1,0-1.5l7-7c0.2-0.2,0.5-0.3,0.8-0.3
		c0.3,0,0.6,0.1,0.8,0.3c0.4,0.4,0.4,1.1,0,1.5l-7,7C-506.4,7-506.7,7.1-507,7.1L-507,7.1z"/>
	<g>
		<path d="M-499.9-1.6c0.2,0,0.3,0.1,0.4,0.2c0.2,0.2,0.2,0.6,0,0.8l-7,7c-0.1,0.1-0.3,0.2-0.4,0.2c0,0,0,0,0,0
			c-0.2,0-0.3-0.1-0.4-0.2c-0.2-0.2-0.2-0.6,0-0.8l7-7C-500.2-1.5-500.1-1.6-499.9-1.6 M-499.9-2.6L-499.9-2.6
			c-0.4,0-0.8,0.2-1.1,0.5l-7,7c-0.6,0.6-0.6,1.6,0,2.2c0.3,0.3,0.7,0.5,1.1,0.5c0.4,0,0.8-0.2,1.1-0.5l7-7c0.6-0.6,0.6-1.6,0-2.2
			C-499.1-2.4-499.5-2.6-499.9-2.6L-499.9-2.6z"/>
	</g>
</g>
<g>
	<path fill="#FFFFFF" d="M-500.2,13c-0.3,0-0.6-0.1-0.8-0.3c-0.4-0.4-0.4-1.1,0-1.5l7-7c0.2-0.2,0.5-0.3,0.8-0.3
		c0.3,0,0.6,0.1,0.8,0.3c0.4,0.4,0.4,1.1,0,1.5l-7,7C-499.7,12.9-499.9,13-500.2,13L-500.2,13z"/>
	<g>
		<path d="M-493.2,4.3c0.2,0,0.3,0.1,0.4,0.2c0.2,0.2,0.2,0.6,0,0.8l-7,7c-0.1,0.1-0.3,0.2-0.4,0.2c0,0,0,0,0,0
			c-0.2,0-0.3-0.1-0.4-0.2c-0.2-0.2-0.2-0.6,0-0.8l7-7C-493.5,4.4-493.4,4.3-493.2,4.3 M-493.2,3.3L-493.2,3.3
			c-0.4,0-0.8,0.2-1.1,0.5l-7,7c-0.6,0.6-0.6,1.6,0,2.2c0.3,0.3,0.7,0.5,1.1,0.5c0.4,0,0.8-0.2,1.1-0.5l7-7c0.6-0.6,0.6-1.6,0-2.2
			C-492.4,3.5-492.8,3.3-493.2,3.3L-493.2,3.3z"/>
	</g>
</g>
<path stroke="#000000" stroke-width="0.9827" stroke-linecap="round" stroke-miterlimit="10" d="M-497.2,19.6
	c-3.2,3-9.3,1.6-13.8-3.1s-5.6-10.9-2.4-13.9c3.2-3,7.2,0.5,11.7,5.2C-497.2,12.5-494,16.6-497.2,19.6z"/>
<g>
	<path fill="#FFFFFF" d="M-509.4,6.8l-0.1-0.3c-0.1-0.2-0.1-0.4,0.2-0.8c-0.1,0-0.1,0-0.2,0l-0.3,0l-0.3-0.6l7.3-7.2
		c0.2-0.2,0.5-0.3,0.8-0.3c0.3,0,0.6,0.1,0.8,0.3c0.4,0.4,0.4,1.1,0,1.5l-7,7c-0.2,0.2-0.5,0.3-0.7,0.3h0H-509.4z"/>
	<g>
		<path d="M-502-1.9c0.2,0,0.3,0.1,0.4,0.2c0.2,0.2,0.2,0.6,0,0.8l-7,7c-0.1,0.1-0.3,0.2-0.4,0.2c0,0,0,0,0,0
			c-0.2,0,1.8-2.2,1.7-2.3c0,0,0,0-0.1,0c-0.4,0-2,1.3-2.1,1.3c0,0,0,0,0,0l7-7C-502.3-1.8-502.2-1.9-502-1.9 M-502-2.9L-502-2.9
			c-0.4,0-0.8,0.2-1.1,0.5l-7,7l-0.5,0.5l0.2,0.6l0.3,0.6l0.1,0c0,0.1,0,0.3,0.1,0.4l0.3,0.6l0.6,0c0.4,0,0.8-0.2,1.1-0.5l7-7
			c0.6-0.6,0.6-1.6,0-2.2C-501.2-2.7-501.6-2.9-502-2.9L-502-2.9z"/>
	</g>
</g>
<g>
	<path fill="#FFFFFF" d="M-499.5,14.9c-0.3,0-0.6-0.1-0.8-0.3c-0.4-0.4-0.4-1.1,0-1.5l7-7c0.2-0.2,0.5-0.3,0.8-0.3
		c0.3,0,0.6,0.1,0.8,0.3c0.4,0.4,0.4,1.1,0,1.5l-7,7C-498.9,14.8-499.2,14.9-499.5,14.9L-499.5,14.9z"/>
	<g>
		<path d="M-492.4,6.3c0.2,0,0.3,0.1,0.4,0.2c0.2,0.2,0.2,0.6,0,0.8l-7,7c-0.1,0.1-0.3,0.2-0.4,0.2c0,0,0,0,0,0
			c-0.2,0-0.3-0.1-0.4-0.2c-0.2-0.2-0.2-0.6,0-0.8l7-7C-492.7,6.3-492.6,6.3-492.4,6.3 M-492.4,5.3L-492.4,5.3
			c-0.4,0-0.8,0.2-1.1,0.5l-7,7c-0.6,0.6-0.6,1.6,0,2.2c0.3,0.3,0.7,0.5,1.1,0.5c0.4,0,0.8-0.2,1.1-0.5l7-7c0.6-0.6,0.6-1.6,0-2.2
			C-491.6,5.5-492,5.3-492.4,5.3L-492.4,5.3z"/>
	</g>
</g>
<g>
	<path fill="#FFFFFF" d="M-499.1,16.6l-0.1-0.3c-0.1-0.3,0-0.5,0.2-0.7c0.2-0.2,0.4-0.5,0.6-0.6c-0.2,0.1-0.4,0.3-0.7,0.5
		c-0.3,0.2-0.4,0.3-0.6,0.3l-0.3,0l-0.3-0.6l7.3-7.2c0.2-0.2,0.5-0.3,0.8-0.3c0.3,0,0.6,0.1,0.8,0.3c0.4,0.4,0.4,1.1,0,1.5l-7.2,7.1
		l-0.2,0H-499.1z"/>
	<g>
		<path d="M-492.2,8.1c0.2,0,0.3,0.1,0.4,0.2c0.2,0.2,0.2,0.6,0,0.8l-7,7c0,0,0,0,0,0c0,0,1.9-2,1.7-2c0,0,0,0,0,0c0,0,0,0,0,0
			c-0.2,0-0.3-0.1-0.4-0.2c0,0,0,0-0.1,0c-0.4,0-2,1.3-2.1,1.3c0,0,0,0,0,0l7-7C-492.5,8.2-492.3,8.1-492.2,8.1 M-492.2,7.1
			L-492.2,7.1c-0.4,0-0.8,0.2-1.1,0.5l-7,7l-0.5,0.5l0.2,0.6l0.3,0.6l0.5,0c0,0.1,0,0.2,0.1,0.2l0.3,0.6l0.6,0h0.4l0.3-0.3l7-7
			c0.6-0.6,0.6-1.6,0-2.2C-491.4,7.3-491.8,7.1-492.2,7.1L-492.2,7.1z"/>
	</g>
</g>
<g>
	<path fill="#FFFFFF" d="M-501.7,16.3l-0.1-0.3c-0.1-0.3,0-0.5,0.2-0.7c0.2-0.2,0.4-0.5,0.6-0.6c-0.2,0.1-0.4,0.3-0.7,0.5
		c-0.3,0.2-0.4,0.3-0.6,0.3l-0.3,0l-0.3-0.6l7.3-7.2c0.2-0.2,0.5-0.3,0.8-0.3c0.3,0,0.6,0.1,0.8,0.3c0.4,0.4,0.4,1.1,0,1.5l-7.2,7.1
		l-0.2,0H-501.7z"/>
	<g>
		<path d="M-494.8,7.8c0.2,0,0.3,0.1,0.4,0.2c0.2,0.2,0.2,0.6,0,0.8l-7,7c0,0,0,0,0,0c0,0,1.9-2,1.7-2c0,0,0,0,0,0c0,0,0,0,0,0
			c-0.2,0-0.3-0.1-0.4-0.2c0,0,0,0-0.1,0c-0.4,0-2,1.3-2.1,1.3c0,0,0,0,0,0l7-7C-495.1,7.9-494.9,7.8-494.8,7.8 M-494.8,6.9
			L-494.8,6.9c-0.4,0-0.8,0.2-1.1,0.5l-7,7l-0.5,0.5l0.2,0.6l0.3,0.6l0.5,0c0,0.1,0,0.2,0.1,0.2l0.3,0.6l0.6,0h0.4l0.3-0.3l7-7
			c0.6-0.6,0.6-1.6,0-2.2C-493.9,7-494.3,6.9-494.8,6.9L-494.8,6.9z"/>
	</g>
</g>
<g>
	<path fill="#FFFFFF" d="M-509.5,8.6l-0.1-0.3c-0.1-0.3,0-0.5,0.2-0.7c0.2-0.2,0.4-0.5,0.6-0.6c-0.2,0.1-0.4,0.3-0.7,0.5
		c-0.3,0.2-0.4,0.3-0.6,0.3l-0.3,0l-0.3-0.6l7.3-7.2c0.2-0.2,0.5-0.3,0.8-0.3c0.3,0,0.6,0.1,0.8,0.3c0.4,0.4,0.4,1.1,0,1.5l-7.2,7.1
		l-0.2,0H-509.5z"/>
	<g>
		<path d="M-502.5,0.1c0.2,0,0.3,0.1,0.4,0.2c0.2,0.2,0.2,0.6,0,0.8l-7,7c0,0,0,0,0,0c0,0,1.9-2,1.7-2c0,0,0,0,0,0c0,0,0,0,0,0
			c-0.2,0-0.3-0.1-0.4-0.2c0,0,0,0-0.1,0c-0.4,0-2,1.3-2.1,1.3c0,0,0,0,0,0l7-7C-502.8,0.2-502.7,0.1-502.5,0.1 M-502.5-0.8
			L-502.5-0.8c-0.4,0-0.8,0.2-1.1,0.5l-7,7l-0.5,0.5l0.2,0.6l0.3,0.6l0.5,0c0,0.1,0,0.2,0.1,0.2l0.3,0.6l0.6,0h0.4l0.3-0.3l7-7
			c0.6-0.6,0.6-1.6,0-2.2C-501.7-0.7-502.1-0.8-502.5-0.8L-502.5-0.8z"/>
	</g>
</g>
<g>
	<path fill="#FFFFFF" d="M-507.1,9.5l-0.1-0.3c-0.1-0.3,0-0.5,0.2-0.7c0.2-0.2,0.4-0.5,0.6-0.6c-0.2,0.1-0.4,0.3-0.7,0.5
		c-0.3,0.2-0.4,0.3-0.6,0.3l-0.3,0l-0.3-0.6l7.3-7.2c0.2-0.2,0.5-0.3,0.8-0.3c0.3,0,0.6,0.1,0.8,0.3c0.4,0.4,0.4,1.1,0,1.5l-7.2,7.1
		l-0.2,0H-507.1z"/>
	<g>
		<path d="M-500.1,1c0.2,0,0.3,0.1,0.4,0.2c0.2,0.2,0.2,0.6,0,0.8l-7,7c0,0,0,0,0,0c0,0,1.9-2,1.7-2c0,0,0,0,0,0c0,0,0,0,0,0
			c-0.2,0-0.3-0.1-0.4-0.2c0,0,0,0-0.1,0c-0.4,0-2,1.3-2.1,1.3c0,0,0,0,0,0l7-7C-500.4,1.1-500.3,1-500.1,1 M-500.1,0L-500.1,0
			c-0.4,0-0.8,0.2-1.1,0.5l-7,7l-0.5,0.5l0.2,0.6l0.3,0.6l0.5,0c0,0.1,0,0.2,0.1,0.2l0.3,0.6l0.6,0h0.4l0.3-0.3l7-7
			c0.6-0.6,0.6-1.6,0-2.2C-499.3,0.2-499.7,0-500.1,0L-500.1,0z"/>
	</g>
</g>
<g>
	<path fill="#FFFFFF" d="M-509.6,11l-0.1-0.3c-0.1-0.3,0-0.5,0.2-0.7c0.2-0.2,0.4-0.5,0.6-0.6c-0.2,0.1-0.4,0.3-0.7,0.5
		c-0.3,0.2-0.4,0.3-0.6,0.3l-0.3,0l-0.3-0.6l7.3-7.2c0.2-0.2,0.5-0.3,0.8-0.3c0.3,0,0.6,0.1,0.8,0.3c0.4,0.4,0.4,1.1,0,1.5l-7.2,7.1
		l-0.2,0H-509.6z"/>
	<g>
		<path d="M-502.6,2.5c0.2,0,0.3,0.1,0.4,0.2c0.2,0.2,0.2,0.6,0,0.8l-7,7c0,0,0,0,0,0c0,0,1.9-2,1.7-2c0,0,0,0,0,0c0,0,0,0,0,0
			c-0.2,0-0.3-0.1-0.4-0.2c0,0,0,0-0.1,0c-0.4,0-2,1.3-2.1,1.3c0,0,0,0,0,0l7-7C-503,2.6-502.8,2.5-502.6,2.5 M-502.6,1.5
			L-502.6,1.5c-0.4,0-0.8,0.2-1.1,0.5l-7,7l-0.5,0.5l0.2,0.6l0.3,0.6l0.5,0c0,0.1,0,0.2,0.1,0.2l0.3,0.6l0.6,0h0.4l0.3-0.3l7-7
			c0.6-0.6,0.6-1.6,0-2.2C-501.8,1.7-502.2,1.5-502.6,1.5L-502.6,1.5z"/>
	</g>
</g>
<g>
	<path fill="#FFFFFF" d="M-505.1,10.6l-0.1-0.3c-0.1-0.3,0-0.5,0.2-0.7c0.2-0.2,0.4-0.5,0.6-0.6c-0.2,0.1-0.4,0.3-0.7,0.5
		c-0.3,0.3-0.4,0.3-0.6,0.3l-0.3,0l-0.3-0.6l7.3-7.2c0.2-0.2,0.5-0.3,0.8-0.3c0.3,0,0.6,0.1,0.8,0.3c0.2,0.2,0.3,0.5,0.3,0.8
		c0,0.3-0.1,0.6-0.3,0.8l-7.2,7.1l-0.2,0H-505.1z"/>
	<g>
		<path d="M-498.1,2.1c0.2,0,0.3,0.1,0.4,0.2c0.2,0.2,0.2,0.6,0,0.8l-7,7c0,0,0,0,0,0c0,0,1.9-2,1.7-2c0,0,0,0,0,0c0,0,0,0,0,0
			c-0.2,0-0.3-0.1-0.4-0.2c0,0,0,0-0.1,0c-0.4,0-2,1.3-2.1,1.3c0,0,0,0,0,0l7-7C-498.4,2.1-498.3,2.1-498.1,2.1 M-498.1,1.1
			L-498.1,1.1c-0.4,0-0.8,0.2-1.1,0.5l-7,7l-0.5,0.5l0.2,0.6l0.3,0.6l0.5,0c0,0.1,0,0.2,0.1,0.2l0.3,0.6l0.6,0h0.4l0.3-0.3l7-7
			c0.6-0.6,0.6-1.6,0-2.2C-497.3,1.3-497.7,1.1-498.1,1.1L-498.1,1.1z"/>
	</g>
</g>
<g>
	<path fill="#FFFFFF" d="M-507.5,12.4l-0.1-0.3c-0.1-0.3,0-0.5,0.2-0.7c0.2-0.2,0.4-0.5,0.6-0.6c-0.2,0.1-0.4,0.3-0.7,0.5
		c-0.3,0.2-0.4,0.3-0.6,0.3l-0.3,0l-0.3-0.6l7.3-7.2c0.2-0.2,0.5-0.3,0.8-0.3c0.3,0,0.6,0.1,0.8,0.3c0.4,0.4,0.4,1.1,0,1.5l-7.2,7.1
		l-0.2,0H-507.5z"/>
	<g>
		<path d="M-500.6,3.9c0.2,0,0.3,0.1,0.4,0.2c0.2,0.2,0.2,0.6,0,0.8l-7,7c0,0,0,0,0,0c0,0,1.9-2,1.7-2c0,0,0,0,0,0c0,0,0,0,0,0
			c-0.2,0-0.3-0.1-0.4-0.2c0,0,0,0-0.1,0c-0.4,0-2,1.3-2.1,1.3c0,0,0,0,0,0l7-7C-500.9,3.9-500.7,3.9-500.6,3.9 M-500.6,2.9
			L-500.6,2.9c-0.4,0-0.8,0.2-1.1,0.5l-7,7l-0.5,0.5l0.2,0.6l0.3,0.6l0.5,0c0,0.1,0,0.2,0.1,0.2l0.3,0.6l0.6,0h0.4l0.3-0.3l7-7
			c0.6-0.6,0.6-1.6,0-2.2C-499.8,3.1-500.2,2.9-500.6,2.9L-500.6,2.9z"/>
	</g>
</g>
<g>
	<path fill="#FFFFFF" d="M-503.2,12.1l-0.1-0.3c-0.1-0.3,0-0.5,0.2-0.7c0.2-0.3,0.4-0.5,0.6-0.7c-0.2,0.1-0.4,0.3-0.7,0.5
		c-0.3,0.2-0.4,0.3-0.6,0.3l-0.3,0l-0.3-0.6l7.3-7.2c0.2-0.2,0.5-0.3,0.8-0.3c0.3,0,0.6,0.1,0.8,0.3c0.4,0.4,0.4,1.1,0,1.5l-7.2,7.1
		l-0.2,0H-503.2z"/>
	<g>
		<path d="M-496.3,3.6c0.2,0,0.3,0.1,0.4,0.2c0.2,0.2,0.2,0.6,0,0.8l-7,7c0,0,0,0,0,0c0,0,1.9-2,1.7-2c0,0,0,0,0,0c0,0,0,0,0,0
			c-0.2,0-0.3-0.1-0.4-0.2c0,0,0,0-0.1,0c-0.4,0-2,1.3-2.1,1.3c0,0,0,0,0,0l7-7C-496.6,3.6-496.5,3.6-496.3,3.6 M-496.3,2.6
			L-496.3,2.6c-0.4,0-0.8,0.2-1.1,0.5l-7,7l-0.5,0.5l0.2,0.6l0.3,0.6l0.5,0c0,0.1,0,0.2,0.1,0.2l0.3,0.6l0.6,0h0.4l0.3-0.3l7-7
			c0.6-0.6,0.6-1.6,0-2.2C-495.5,2.8-495.9,2.6-496.3,2.6L-496.3,2.6z"/>
	</g>
</g>
<g>
	<path fill="#FFFFFF" d="M-505.6,13.9l-0.1-0.3c-0.1-0.3,0-0.5,0.2-0.7c0.2-0.2,0.4-0.5,0.6-0.6c-0.2,0.1-0.4,0.3-0.7,0.5
		c-0.3,0.2-0.4,0.3-0.6,0.3l-0.3,0l-0.3-0.6l7.3-7.2c0.2-0.2,0.5-0.3,0.8-0.3c0.3,0,0.6,0.1,0.8,0.3c0.4,0.4,0.4,1.1,0,1.5l-7.2,7.1
		l-0.2,0H-505.6z"/>
	<g>
		<path d="M-498.6,5.4c0.2,0,0.3,0.1,0.4,0.2c0.2,0.2,0.2,0.6,0,0.8l-7,7c0,0,0,0,0,0c0,0,1.9-2,1.7-2c0,0,0,0,0,0c0,0,0,0,0,0
			c-0.2,0-0.3-0.1-0.4-0.2c0,0,0,0-0.1,0c-0.4,0-2,1.3-2.1,1.3c0,0,0,0,0,0l7-7C-498.9,5.5-498.8,5.4-498.6,5.4 M-498.6,4.4
			L-498.6,4.4c-0.4,0-0.8,0.2-1.1,0.5l-7,7l-0.5,0.5l0.2,0.6l0.3,0.6l0.5,0c0,0.1,0,0.2,0.1,0.2l0.3,0.6l0.6,0h0.4l0.3-0.3l7-7
			c0.6-0.6,0.6-1.6,0-2.2C-497.8,4.6-498.2,4.4-498.6,4.4L-498.6,4.4z"/>
	</g>
</g>
<g>
	<path fill="#FFFFFF" d="M-502.3,14.1l-0.1-0.3c-0.1-0.3,0-0.5,0.2-0.7c0.2-0.2,0.4-0.5,0.6-0.6c-0.2,0.1-0.4,0.3-0.7,0.5
		c-0.3,0.2-0.4,0.3-0.6,0.3l-0.3,0l-0.3-0.6l7.3-7.2c0.2-0.2,0.5-0.3,0.8-0.3c0.3,0,0.6,0.1,0.8,0.3c0.2,0.2,0.3,0.5,0.3,0.8
		c0,0.3-0.1,0.6-0.3,0.8l-7.2,7.1l-0.2,0H-502.3z"/>
	<g>
		<path d="M-495.3,5.6c0.2,0,0.3,0.1,0.4,0.2c0.2,0.2,0.2,0.6,0,0.8l-7,7c0,0,0,0,0,0c0,0,1.9-2,1.7-2c0,0,0,0,0,0c0,0,0,0,0,0
			c-0.2,0-0.3-0.1-0.4-0.2c0,0,0,0-0.1,0c-0.4,0-2,1.3-2.1,1.3c0,0,0,0,0,0l7-7C-495.6,5.6-495.5,5.6-495.3,5.6 M-495.3,4.6
			L-495.3,4.6c-0.4,0-0.8,0.2-1.1,0.5l-7,7l-0.5,0.5l0.2,0.6l0.3,0.6l0.5,0c0,0.1,0,0.2,0.1,0.2l0.3,0.6l0.6,0h0.4l0.3-0.3l7-7
			c0.6-0.6,0.6-1.6,0-2.2C-494.5,4.8-494.9,4.6-495.3,4.6L-495.3,4.6z"/>
	</g>
</g>
<g>
	<path fill="#FFFFFF" d="M-504.3,16.1l-0.1-0.3c-0.1-0.3,0-0.5,0.2-0.7c0.2-0.2,0.4-0.5,0.6-0.6c-0.2,0.1-0.4,0.3-0.7,0.5
		c-0.3,0.2-0.4,0.3-0.6,0.3l-0.3,0l-0.3-0.6l7.3-7.2c0.2-0.2,0.5-0.3,0.8-0.3c0.3,0,0.6,0.1,0.8,0.3c0.4,0.4,0.4,1.1,0,1.5l-7.2,7.1
		l-0.2,0H-504.3z"/>
	<g>
		<path d="M-497.4,7.6c0.2,0,0.3,0.1,0.4,0.2c0.2,0.2,0.2,0.6,0,0.8l-7,7c0,0,0,0,0,0c0,0,1.9-2,1.7-2c0,0,0,0,0,0c0,0,0,0,0,0
			c-0.2,0-0.3-0.1-0.4-0.2c0,0,0,0-0.1,0c-0.4,0-2,1.3-2.1,1.3c0,0,0,0,0,0l7-7C-497.7,7.6-497.5,7.6-497.4,7.6 M-497.4,6.6
			L-497.4,6.6c-0.4,0-0.8,0.2-1.1,0.5l-7,7l-0.5,0.5l0.2,0.6l0.3,0.6l0.5,0c0,0.1,0,0.2,0.1,0.2l0.3,0.6l0.6,0h0.4l0.3-0.3l7-7
			c0.6-0.6,0.6-1.6,0-2.2C-496.5,6.8-496.9,6.6-497.4,6.6L-497.4,6.6z"/>
	</g>
</g>
<g>
	<path fill="#FFFFFF" d="M-497.4,16.3c-0.3,0-0.6-0.1-0.8-0.3c-0.4-0.4-0.4-1.1,0-1.5l4.9-4.9c0.2-0.2,0.5-0.3,0.8-0.3
		c0.3,0,0.6,0.1,0.8,0.3c0.4,0.4,0.4,1.1,0,1.5l-4.9,4.9C-496.8,16.2-497.1,16.3-497.4,16.3L-497.4,16.3z"/>
	<g>
		<path d="M-492.5,9.8c0.2,0,0.3,0.1,0.4,0.2c0.2,0.2,0.2,0.6,0,0.8l-4.9,4.9c-0.1,0.1-0.3,0.2-0.4,0.2c0,0,0,0,0,0
			c-0.2,0-0.3-0.1-0.4-0.2c-0.2-0.2-0.2-0.6,0-0.8l4.9-4.9C-492.8,9.8-492.6,9.8-492.5,9.8 M-492.5,8.8L-492.5,8.8
			c-0.4,0-0.8,0.2-1.1,0.5l-4.9,4.9c-0.6,0.6-0.6,1.6,0,2.2c0.3,0.3,0.7,0.5,1.1,0.5c0.4,0,0.8-0.2,1.1-0.5l4.9-4.9
			c0.6-0.6,0.6-1.6,0-2.2C-491.7,8.9-492.1,8.8-492.5,8.8L-492.5,8.8z"/>
	</g>
</g>
<g>
	<path fill="#FFFFFF" d="M-499,17.2c-0.3,0-0.6-0.1-0.8-0.3c-0.4-0.4-0.4-1.1,0-1.5l4.9-4.9c0.2-0.2,0.5-0.3,0.8-0.3
		c0.3,0,0.6,0.1,0.8,0.3c0.4,0.4,0.4,1.1,0,1.5l-4.9,4.9C-498.4,17-498.7,17.2-499,17.2L-499,17.2z"/>
	<g>
		<path d="M-494.1,10.6c0.2,0,0.3,0.1,0.4,0.2c0.2,0.2,0.2,0.6,0,0.8l-4.9,4.9c-0.1,0.1-0.3,0.2-0.4,0.2c0,0,0,0,0,0
			c-0.2,0-0.3-0.1-0.4-0.2c-0.2-0.2-0.2-0.6,0-0.8l4.9-4.9C-494.4,10.7-494.3,10.6-494.1,10.6 M-494.1,9.6L-494.1,9.6
			c-0.4,0-0.8,0.2-1.1,0.5l-4.9,4.9c-0.6,0.6-0.6,1.6,0,2.2c0.3,0.3,0.7,0.5,1.1,0.5c0.4,0,0.8-0.2,1.1-0.5l4.9-4.9
			c0.6-0.6,0.6-1.6,0-2.2C-493.3,9.8-493.7,9.6-494.1,9.6L-494.1,9.6z"/>
	</g>
</g>
<g>
	<path fill="#FFFFFF" d="M-500.7,17.4c-0.3,0-0.6-0.1-0.8-0.3c-0.4-0.4-0.4-1.1,0-1.5l4.9-4.9c0.2-0.2,0.5-0.3,0.8-0.3
		c0.3,0,0.6,0.1,0.8,0.3c0.4,0.4,0.4,1.1,0,1.5l-4.9,4.9C-500.1,17.3-500.4,17.4-500.7,17.4L-500.7,17.4z"/>
	<g>
		<path d="M-495.7,10.8c0.2,0,0.3,0.1,0.4,0.2c0.2,0.2,0.2,0.6,0,0.8l-4.9,4.9c-0.1,0.1-0.3,0.2-0.4,0.2c0,0,0,0,0,0
			c-0.2,0-0.3-0.1-0.4-0.2c-0.2-0.2-0.2-0.6,0-0.8l4.9-4.9C-496,10.9-495.9,10.8-495.7,10.8 M-495.7,9.9L-495.7,9.9
			c-0.4,0-0.8,0.2-1.1,0.5l-4.9,4.9c-0.6,0.6-0.6,1.6,0,2.2c0.3,0.3,0.7,0.5,1.1,0.5c0.4,0,0.8-0.2,1.1-0.5l4.9-4.9
			c0.6-0.6,0.6-1.6,0-2.2C-494.9,10-495.3,9.9-495.7,9.9L-495.7,9.9z"/>
	</g>
</g>
<g>
	<path fill="#FFFFFF" d="M-503,16.9c-0.3,0-0.6-0.1-0.8-0.3c-0.4-0.4-0.4-1.1,0-1.5l4.9-4.9c0.2-0.2,0.5-0.3,0.8-0.3
		c0.3,0,0.6,0.1,0.8,0.3c0.4,0.4,0.4,1.1,0,1.5l-4.9,4.9C-502.5,16.8-502.7,16.9-503,16.9L-503,16.9z"/>
	<g>
		<path d="M-498.1,10.3c0.2,0,0.3,0.1,0.4,0.2c0.2,0.2,0.2,0.6,0,0.8l-4.9,4.9c-0.1,0.1-0.3,0.2-0.4,0.2c0,0,0,0,0,0
			c-0.2,0-0.3-0.1-0.4-0.2c-0.2-0.2-0.2-0.6,0-0.8l4.9-4.9C-498.4,10.4-498.3,10.3-498.1,10.3 M-498.1,9.4L-498.1,9.4
			c-0.4,0-0.8,0.2-1.1,0.5l-4.9,4.9c-0.6,0.6-0.6,1.6,0,2.2c0.3,0.3,0.7,0.5,1.1,0.5c0.4,0,0.8-0.2,1.1-0.5l4.9-4.9
			c0.6-0.6,0.6-1.6,0-2.2C-497.3,9.5-497.7,9.4-498.1,9.4L-498.1,9.4z"/>
	</g>
</g>
<g>
	<path fill="#FFFFFF" d="M-504.8,15.9c-0.3,0-0.6-0.1-0.8-0.3c-0.4-0.4-0.4-1.1,0-1.5l4.9-4.9c0.2-0.2,0.5-0.3,0.8-0.3
		c0.3,0,0.6,0.1,0.8,0.3c0.4,0.4,0.4,1.1,0,1.5l-4.9,4.9C-504.2,15.8-504.5,15.9-504.8,15.9L-504.8,15.9z"/>
	<g>
		<path d="M-499.9,9.3c0.2,0,0.3,0.1,0.4,0.2c0.2,0.2,0.2,0.6,0,0.8l-4.9,4.9c-0.1,0.1-0.3,0.2-0.4,0.2c0,0,0,0,0,0
			c-0.2,0-0.3-0.1-0.4-0.2c-0.2-0.2-0.2-0.6,0-0.8l4.9-4.9C-500.2,9.4-500,9.3-499.9,9.3 M-499.9,8.3L-499.9,8.3
			c-0.4,0-0.8,0.2-1.1,0.5l-4.9,4.9c-0.6,0.6-0.6,1.6,0,2.2c0.3,0.3,0.7,0.5,1.1,0.5c0.4,0,0.8-0.2,1.1-0.5l4.9-4.9
			c0.6-0.6,0.6-1.6,0-2.2C-499,8.5-499.4,8.3-499.9,8.3L-499.9,8.3z"/>
	</g>
</g>
<g>
	<path fill="#FFFFFF" d="M-506.6,14.2c-0.3,0-0.6-0.1-0.8-0.3c-0.4-0.4-0.4-1.1,0-1.5l4.9-4.9c0.2-0.2,0.5-0.3,0.8-0.3
		c0.3,0,0.6,0.1,0.8,0.3c0.4,0.4,0.4,1.1,0,1.5l-4.9,4.9C-506,14.1-506.3,14.2-506.6,14.2L-506.6,14.2z"/>
	<g>
		<path d="M-501.7,7.7c0.2,0,0.3,0.1,0.4,0.2c0.2,0.2,0.2,0.6,0,0.8l-4.9,4.9c-0.1,0.1-0.3,0.2-0.4,0.2c0,0,0,0,0,0
			c-0.2,0-0.3-0.1-0.4-0.2c-0.2-0.2-0.2-0.6,0-0.8l4.9-4.9C-502,7.7-501.9,7.7-501.7,7.7 M-501.7,6.7L-501.7,6.7
			c-0.4,0-0.8,0.2-1.1,0.5l-4.9,4.9c-0.6,0.6-0.6,1.6,0,2.2c0.3,0.3,0.7,0.5,1.1,0.5c0.4,0,0.8-0.2,1.1-0.5l4.9-4.9
			c0.6-0.6,0.6-1.6,0-2.2C-500.9,6.9-501.3,6.7-501.7,6.7L-501.7,6.7z"/>
	</g>
</g>
<g>
	<path fill="#FFFFFF" d="M-508.2,12.3c-0.3,0-0.6-0.1-0.8-0.3c-0.4-0.4-0.4-1.1,0-1.5l4.9-4.9c0.2-0.2,0.5-0.3,0.8-0.3
		c0.3,0,0.6,0.1,0.8,0.3c0.4,0.4,0.4,1.1,0,1.5l-4.9,4.9C-507.6,12.2-507.9,12.3-508.2,12.3L-508.2,12.3z"/>
	<g>
		<path d="M-503.3,5.8c0.2,0,0.3,0.1,0.4,0.2c0.2,0.2,0.2,0.6,0,0.8l-4.9,4.9c-0.1,0.1-0.3,0.2-0.4,0.2c0,0,0,0,0,0
			c-0.2,0-0.3-0.1-0.4-0.2c-0.2-0.2-0.2-0.6,0-0.8l4.9-4.9C-503.6,5.8-503.4,5.8-503.3,5.8 M-503.3,4.8L-503.3,4.8
			c-0.4,0-0.8,0.2-1.1,0.5l-4.9,4.9c-0.6,0.6-0.6,1.6,0,2.2c0.3,0.3,0.7,0.5,1.1,0.5c0.4,0,0.8-0.2,1.1-0.5l4.9-4.9
			c0.6-0.6,0.6-1.6,0-2.2C-502.4,5-502.8,4.8-503.3,4.8L-503.3,4.8z"/>
	</g>
</g>
<g>
	<path fill="#FFFFFF" d="M-509.8,10c-0.3,0-0.6-0.1-0.8-0.3c-0.4-0.4-0.4-1.1,0-1.5l4.9-4.9c0.2-0.2,0.5-0.3,0.8-0.3
		c0.3,0,0.6,0.1,0.8,0.3c0.4,0.4,0.4,1.1,0,1.5l-4.9,4.9C-509.2,9.9-509.5,10-509.8,10L-509.8,10z"/>
	<g>
		<path d="M-504.9,3.4c0.2,0,0.3,0.1,0.4,0.2c0.2,0.2,0.2,0.6,0,0.8l-4.9,4.9c-0.1,0.1-0.3,0.2-0.4,0.2c0,0,0,0,0,0
			c-0.2,0-0.3-0.1-0.4-0.2c-0.2-0.2-0.2-0.6,0-0.8l4.9-4.9C-505.2,3.5-505,3.4-504.9,3.4 M-504.9,2.5L-504.9,2.5
			c-0.4,0-0.8,0.2-1.1,0.5l-4.9,4.9c-0.6,0.6-0.6,1.6,0,2.2c0.3,0.3,0.7,0.5,1.1,0.5c0.4,0,0.8-0.2,1.1-0.5l4.9-4.9
			c0.6-0.6,0.6-1.6,0-2.2C-504.1,2.6-504.5,2.5-504.9,2.5L-504.9,2.5z"/>
	</g>
</g>
<g>
	<path fill="#FFFFFF" d="M-509.2,5c-0.3,0-0.6-0.1-0.8-0.3c-0.4-0.4-0.4-1.1,0-1.5l4.9-4.9c0.2-0.2,0.5-0.3,0.8-0.3
		c0.3,0,0.6,0.1,0.8,0.3c0.4,0.4,0.4,1.1,0,1.5l-4.9,4.9C-508.7,4.9-508.9,5-509.2,5L-509.2,5z"/>
	<g>
		<path d="M-504.3-1.5c0.2,0,0.3,0.1,0.4,0.2c0.2,0.2,0.2,0.6,0,0.8l-4.9,4.9c-0.1,0.1-0.3,0.2-0.4,0.2c0,0,0,0,0,0
			c-0.2,0-0.3-0.1-0.4-0.2c-0.2-0.2-0.2-0.6,0-0.8l4.9-4.9C-504.6-1.5-504.5-1.5-504.3-1.5 M-504.3-2.5L-504.3-2.5
			c-0.4,0-0.8,0.2-1.1,0.5l-4.9,4.9c-0.6,0.6-0.6,1.6,0,2.2c0.3,0.3,0.7,0.5,1.1,0.5c0.4,0,0.8-0.2,1.1-0.5l4.9-4.9
			c0.6-0.6,0.6-1.6,0-2.2C-503.5-2.3-503.9-2.5-504.3-2.5L-504.3-2.5z"/>
	</g>
</g>
<g>
	<path fill="#FFFFFF" d="M-512.9,5.4c-0.3,0-0.6-0.1-0.8-0.3c-0.4-0.4-0.4-1.1,0-1.5l4.9-4.9c0.2-0.2,0.5-0.3,0.8-0.3
		c0.3,0,0.6,0.1,0.8,0.3c0.4,0.4,0.4,1.1,0,1.5l-4.9,4.9C-512.4,5.3-512.6,5.4-512.9,5.4L-512.9,5.4z"/>
	<g>
		<path d="M-508-1.1c0.2,0,0.3,0.1,0.4,0.2c0.2,0.2,0.2,0.6,0,0.8l-4.9,4.9c-0.1,0.1-0.3,0.2-0.4,0.2c0,0,0,0,0,0
			c-0.2,0-0.3-0.1-0.4-0.2c-0.2-0.2-0.2-0.6,0-0.8l4.9-4.9C-508.3-1.1-508.2-1.1-508-1.1 M-508-2.1L-508-2.1c-0.4,0-0.8,0.2-1.1,0.5
			l-4.9,4.9c-0.6,0.6-0.6,1.6,0,2.2c0.3,0.3,0.7,0.5,1.1,0.5c0.4,0,0.8-0.2,1.1-0.5l4.9-4.9c0.6-0.6,0.6-1.6,0-2.2
			C-507.2-1.9-507.6-2.1-508-2.1L-508-2.1z"/>
	</g>
</g>
<g>
	<path fill="#FFFFFF" d="M-511.2,14c-0.3,0-0.6-0.1-0.8-0.3c-0.4-0.4-0.4-1.1,0-1.5l4.9-4.9c0.2-0.2,0.5-0.3,0.8-0.3
		c0.3,0,0.6,0.1,0.8,0.3c0.4,0.4,0.4,1.1,0,1.5l-4.9,4.9C-510.6,13.9-510.9,14-511.2,14L-511.2,14z"/>
	<g>
		<path d="M-506.3,7.5c0.2,0,0.3,0.1,0.4,0.2c0.2,0.2,0.2,0.6,0,0.8l-4.9,4.9c-0.1,0.1-0.3,0.2-0.4,0.2c0,0,0,0,0,0
			c-0.2,0-0.3-0.1-0.4-0.2c-0.2-0.2-0.2-0.6,0-0.8l4.9-4.9C-506.6,7.5-506.5,7.5-506.3,7.5 M-506.3,6.5L-506.3,6.5
			c-0.4,0-0.8,0.2-1.1,0.5l-4.9,4.9c-0.6,0.6-0.6,1.6,0,2.2c0.3,0.3,0.7,0.5,1.1,0.5c0.4,0,0.8-0.2,1.1-0.5l4.9-4.9
			c0.6-0.6,0.6-1.6,0-2.2C-505.5,6.7-505.9,6.5-506.3,6.5L-506.3,6.5z"/>
	</g>
</g>
<g>
	<path fill="#FFFFFF" d="M-509.3,16.3c-0.3,0-0.6-0.1-0.8-0.3c-0.4-0.4-0.4-1.1,0-1.5l4.9-4.9c0.2-0.2,0.5-0.3,0.8-0.3
		c0.3,0,0.6,0.1,0.8,0.3c0.4,0.4,0.4,1.1,0,1.5l-4.9,4.9C-508.7,16.2-509,16.3-509.3,16.3L-509.3,16.3z"/>
	<g>
		<path d="M-504.4,9.8c0.2,0,0.3,0.1,0.4,0.2c0.2,0.2,0.2,0.6,0,0.8l-4.9,4.9c-0.1,0.1-0.3,0.2-0.4,0.2c0,0,0,0,0,0
			c-0.2,0-0.3-0.1-0.4-0.2c-0.2-0.2-0.2-0.6,0-0.8l4.9-4.9C-504.7,9.9-504.5,9.8-504.4,9.8 M-504.4,8.8L-504.4,8.8
			c-0.4,0-0.8,0.2-1.1,0.5l-4.9,4.9c-0.6,0.6-0.6,1.6,0,2.2c0.3,0.3,0.7,0.5,1.1,0.5c0.4,0,0.8-0.2,1.1-0.5l4.9-4.9
			c0.6-0.6,0.6-1.6,0-2.2C-503.5,9-503.9,8.8-504.4,8.8L-504.4,8.8z"/>
	</g>
</g>
<g>
	<path fill="#FFFFFF" d="M-507.3,18.2c-0.3,0-0.6-0.1-0.8-0.3c-0.4-0.4-0.4-1.1,0-1.5l4.9-4.9c0.2-0.2,0.5-0.3,0.8-0.3
		c0.3,0,0.6,0.1,0.8,0.3c0.4,0.4,0.4,1.1,0,1.5l-4.9,4.9C-506.7,18.1-506.9,18.2-507.3,18.2L-507.3,18.2z"/>
	<g>
		<path d="M-502.3,11.7c0.2,0,0.3,0.1,0.4,0.2c0.2,0.2,0.2,0.6,0,0.8l-4.9,4.9c-0.1,0.1-0.3,0.2-0.4,0.2c0,0,0,0,0,0
			c-0.2,0-0.3-0.1-0.4-0.2c-0.2-0.2-0.2-0.6,0-0.8l4.9-4.9C-502.6,11.7-502.5,11.7-502.3,11.7 M-502.3,10.7L-502.3,10.7
			c-0.4,0-0.8,0.2-1.1,0.5l-4.9,4.9c-0.6,0.6-0.6,1.6,0,2.2c0.3,0.3,0.7,0.5,1.1,0.5c0.4,0,0.8-0.2,1.1-0.5l4.9-4.9
			c0.6-0.6,0.6-1.6,0-2.2C-501.5,10.9-501.9,10.7-502.3,10.7L-502.3,10.7z"/>
	</g>
</g>
<g>
	<path fill="#FFFFFF" d="M-496.5,18.9c-0.3,0-0.6-0.1-0.8-0.3c-0.4-0.4-0.4-1.1,0-1.5l4.9-4.9c0.2-0.2,0.5-0.3,0.8-0.3
		c0.3,0,0.6,0.1,0.8,0.3c0.4,0.4,0.4,1.1,0,1.5l-4.9,4.9C-496,18.8-496.2,18.9-496.5,18.9L-496.5,18.9z"/>
	<g>
		<path d="M-491.6,12.4c0.2,0,0.3,0.1,0.4,0.2c0.2,0.2,0.2,0.6,0,0.8l-4.9,4.9c-0.1,0.1-0.3,0.2-0.4,0.2c0,0,0,0,0,0
			c-0.2,0-0.3-0.1-0.4-0.2c-0.2-0.2-0.2-0.6,0-0.8l4.9-4.9C-491.9,12.4-491.8,12.4-491.6,12.4 M-491.6,11.4L-491.6,11.4
			c-0.4,0-0.8,0.2-1.1,0.5l-4.9,4.9c-0.6,0.6-0.6,1.6,0,2.2c0.3,0.3,0.7,0.5,1.1,0.5c0.4,0,0.8-0.2,1.1-0.5l4.9-4.9
			c0.6-0.6,0.6-1.6,0-2.2C-490.8,11.5-491.2,11.4-491.6,11.4L-491.6,11.4z"/>
	</g>
</g>
<g>
	<path fill="#FFFFFF" d="M-504.5,19.9c-0.3,0-0.6-0.1-0.8-0.3c-0.4-0.4-0.4-1.1,0-1.5l4.9-4.9c0.2-0.2,0.5-0.3,0.8-0.3
		c0.3,0,0.6,0.1,0.8,0.3c0.4,0.4,0.4,1.1,0,1.5l-4.9,4.9C-503.9,19.8-504.1,19.9-504.5,19.9L-504.5,19.9z"/>
	<g>
		<path d="M-499.5,13.4c0.2,0,0.3,0.1,0.4,0.2c0.2,0.2,0.2,0.6,0,0.8l-4.9,4.9c-0.1,0.1-0.3,0.2-0.4,0.2c0,0,0,0,0,0
			c-0.2,0-0.3-0.1-0.4-0.2c-0.2-0.2-0.2-0.6,0-0.8l4.9-4.9C-499.8,13.4-499.7,13.4-499.5,13.4 M-499.5,12.4L-499.5,12.4
			c-0.4,0-0.8,0.2-1.1,0.5l-4.9,4.9c-0.6,0.6-0.6,1.6,0,2.2c0.3,0.3,0.7,0.5,1.1,0.5c0.4,0,0.8-0.2,1.1-0.5l4.9-4.9
			c0.6-0.6,0.6-1.6,0-2.2C-498.7,12.5-499.1,12.4-499.5,12.4L-499.5,12.4z"/>
	</g>
</g>
<g>
	<path fill="#FFFFFF" d="M-498.6,20.5c-0.3,0-0.6-0.1-0.8-0.3c-0.4-0.4-0.4-1.1,0-1.5l4.9-4.9c0.2-0.2,0.5-0.3,0.8-0.3
		c0.3,0,0.6,0.1,0.8,0.3c0.4,0.4,0.4,1.1,0,1.5l-4.9,4.9C-498,20.4-498.2,20.5-498.6,20.5L-498.6,20.5z"/>
	<g>
		<path d="M-493.6,13.9c0.2,0,0.3,0.1,0.4,0.2c0.2,0.2,0.2,0.6,0,0.8l-4.9,4.9c-0.1,0.1-0.3,0.2-0.4,0.2c0,0,0,0,0,0
			c-0.2,0-0.3-0.1-0.4-0.2c-0.2-0.2-0.2-0.6,0-0.8l4.9-4.9C-493.9,14-493.8,13.9-493.6,13.9 M-493.6,13L-493.6,13
			c-0.4,0-0.8,0.2-1.1,0.5l-4.9,4.9c-0.6,0.6-0.6,1.6,0,2.2c0.3,0.3,0.7,0.5,1.1,0.5c0.4,0,0.8-0.2,1.1-0.5l4.9-4.9
			c0.6-0.6,0.6-1.6,0-2.2C-492.8,13.1-493.2,13-493.6,13L-493.6,13z"/>
	</g>
</g>
<g>
	<path fill="#FFFFFF" d="M-501.3,20.7c-0.3,0-0.6-0.1-0.8-0.3c-0.4-0.4-0.4-1.1,0-1.5l4.9-4.9c0.2-0.2,0.5-0.3,0.8-0.3
		c0.3,0,0.6,0.1,0.8,0.3c0.4,0.4,0.4,1.1,0,1.5l-4.9,4.9C-500.7,20.6-501,20.7-501.3,20.7L-501.3,20.7z"/>
	<g>
		<path d="M-496.4,14.2c0.2,0,0.3,0.1,0.4,0.2c0.2,0.2,0.2,0.6,0,0.8l-4.9,4.9c-0.1,0.1-0.3,0.2-0.4,0.2c0,0,0,0,0,0
			c-0.2,0-0.3-0.1-0.4-0.2c-0.2-0.2-0.2-0.6,0-0.8l4.9-4.9C-496.7,14.2-496.5,14.2-496.4,14.2 M-496.4,13.2L-496.4,13.2
			c-0.4,0-0.8,0.2-1.1,0.5l-4.9,4.9c-0.6,0.6-0.6,1.6,0,2.2c0.3,0.3,0.7,0.5,1.1,0.5c0.4,0,0.8-0.2,1.1-0.5l4.9-4.9
			c0.6-0.6,0.6-1.6,0-2.2C-495.5,13.4-495.9,13.2-496.4,13.2L-496.4,13.2z"/>
	</g>
</g>
<g>
	<path fill="#FFFFFF" d="M-510.2,7.4c-0.3,0-0.6-0.1-0.8-0.3c-0.4-0.4-0.4-1.1,0-1.5l4.9-4.9c0.2-0.2,0.5-0.3,0.8-0.3
		c0.3,0,0.6,0.1,0.8,0.3c0.4,0.4,0.4,1.1,0,1.5l-4.9,4.9C-509.7,7.2-509.9,7.4-510.2,7.4L-510.2,7.4z"/>
	<g>
		<path d="M-505.3,0.8c0.2,0,0.3,0.1,0.4,0.2c0.2,0.2,0.2,0.6,0,0.8l-4.9,4.9c-0.1,0.1-0.3,0.2-0.4,0.2c0,0,0,0,0,0
			c-0.2,0-0.3-0.1-0.4-0.2c-0.2-0.2-0.2-0.6,0-0.8l4.9-4.9C-505.6,0.9-505.5,0.8-505.3,0.8 M-505.3-0.2L-505.3-0.2
			c-0.4,0-0.8,0.2-1.1,0.5l-4.9,4.9c-0.6,0.6-0.6,1.6,0,2.2c0.3,0.3,0.7,0.5,1.1,0.5c0.4,0,0.8-0.2,1.1-0.5l4.9-4.9
			c0.6-0.6,0.6-1.6,0-2.2C-504.5,0-504.9-0.2-505.3-0.2L-505.3-0.2z"/>
	</g>
</g>
<g>
	<path fill="#FFFFFF" d="M-513.3,8.2c-0.3,0-0.6-0.1-0.8-0.3c-0.4-0.4-0.4-1.1,0-1.5l4.9-4.9c0.2-0.2,0.5-0.3,0.8-0.3
		c0.3,0,0.6,0.1,0.8,0.3c0.4,0.4,0.4,1.1,0,1.5l-4.9,4.9C-512.7,8-513,8.2-513.3,8.2L-513.3,8.2z"/>
	<g>
		<path d="M-508.4,1.6c0.2,0,0.3,0.1,0.4,0.2c0.2,0.2,0.2,0.6,0,0.8l-4.9,4.9c-0.1,0.1-0.3,0.2-0.4,0.2c0,0,0,0,0,0
			c-0.2,0-0.3-0.1-0.4-0.2c-0.2-0.2-0.2-0.6,0-0.8l4.9-4.9C-508.7,1.7-508.5,1.6-508.4,1.6 M-508.4,0.6L-508.4,0.6
			c-0.4,0-0.8,0.2-1.1,0.5l-4.9,4.9c-0.6,0.6-0.6,1.6,0,2.2c0.3,0.3,0.7,0.5,1.1,0.5c0.4,0,0.8-0.2,1.1-0.5l4.9-4.9
			c0.6-0.6,0.6-1.6,0-2.2C-507.5,0.8-507.9,0.6-508.4,0.6L-508.4,0.6z"/>
	</g>
</g>
<g>
	<path fill="#FFFFFF" d="M-512.7,11.5c-0.3,0-0.6-0.1-0.8-0.3c-0.4-0.4-0.4-1.1,0-1.5l4.9-4.9c0.2-0.2,0.5-0.3,0.8-0.3
		c0.3,0,0.6,0.1,0.8,0.3c0.4,0.4,0.4,1.1,0,1.5l-4.9,4.9C-512.2,11.3-512.4,11.5-512.7,11.5L-512.7,11.5z"/>
	<g>
		<path d="M-507.8,4.9c0.2,0,0.3,0.1,0.4,0.2c0.2,0.2,0.2,0.6,0,0.8l-4.9,4.9c-0.1,0.1-0.3,0.2-0.4,0.2c0,0,0,0,0,0
			c-0.2,0-0.3-0.1-0.4-0.2c-0.2-0.2-0.2-0.6,0-0.8l4.9-4.9C-508.1,5-508,4.9-507.8,4.9 M-507.8,3.9L-507.8,3.9
			c-0.4,0-0.8,0.2-1.1,0.5l-4.9,4.9c-0.6,0.6-0.6,1.6,0,2.2c0.3,0.3,0.7,0.5,1.1,0.5c0.4,0,0.8-0.2,1.1-0.5l4.9-4.9
			c0.6-0.6,0.6-1.6,0-2.2C-507,4.1-507.4,3.9-507.8,3.9L-507.8,3.9z"/>
	</g>
</g>
<path fill="none" stroke="#FF0000" stroke-width="0.9827" stroke-linecap="round" stroke-miterlimit="10" d="M-393.9,4.3l-2.4,2.1
	c-4.3,3.9-3.1,12.3,2.6,18.7c5.8,6.4,13.9,8.6,18.2,4.7l2.5-2.3"/>
<ellipse transform="matrix(0.6683 0.7439 -0.7439 0.6683 -115.4635 290.2191)" fill="none" stroke="#FF0000" stroke-width="0.9827" stroke-linecap="round" stroke-miterlimit="10" cx="-383.2" cy="15.6" rx="15.6" ry="10.5"/>
<ellipse transform="matrix(0.6683 0.7439 -0.7439 0.6683 -115.4635 290.2191)" fill="none" stroke="#FF0000" stroke-width="0.9827" stroke-linecap="round" stroke-miterlimit="10" cx="-383.2" cy="15.6" rx="13.5" ry="8.5"/>
<g>
	<path fill="#FFFFFF" stroke="#FFFFFF" stroke-linecap="round" stroke-miterlimit="10" d="M-238,57.1l-35.7-34.6l-1.6,1.7l35.7,34.6
		c0.5,0.5,1.2,0.5,1.7,0C-237.5,58.3-237.6,57.6-238,57.1z"/>
</g>
<path fill="none" stroke="#FFFFFF" stroke-linecap="round" stroke-linejoin="round" stroke-miterlimit="10" d="M-290.8,2.5
	c-3.1,2.8-2.3,8.9,1.9,13.6s10.2,6.2,13.3,3.4l-0.2,0.2l-1.9,1.7c-3.1,2.8-9.1,1.2-13.3-3.5s-5-10.9-1.9-13.7l1.7-1.6"/>
<ellipse transform="matrix(0.6683 0.7439 -0.7439 0.6683 -85.7549 214.2858)" fill="none" stroke="#FFFFFF" stroke-linecap="round" stroke-miterlimit="10" cx="-283.2" cy="11" rx="11.4" ry="7.6"/>
<g>
	<path fill="#FFFFFF" d="M-286.6,3.5c2.3,0,5.2,1.5,7.4,3.9c1.6,1.8,2.7,3.9,3.1,5.9c0.3,1.8-0.1,3.3-1,4.2
		c-0.6,0.6-1.5,0.8-2.5,0.8c-2.3,0-5.2-1.5-7.4-3.9c-1.6-1.8-2.7-3.9-3.1-5.9c-0.3-1.8,0.1-3.3,1-4.2
		C-288.5,3.8-287.6,3.5-286.6,3.5 M-286.6,2.5c-1.2,0-2.3,0.4-3.1,1.1c-2.6,2.3-1.7,7.5,2,11.5c2.5,2.7,5.6,4.3,8.1,4.3
		c1.2,0,2.3-0.4,3.1-1.1c2.6-2.3,1.7-7.5-2-11.5C-281,4.1-284.1,2.5-286.6,2.5L-286.6,2.5z"/>
</g>
<g>
	<g>
		<polygon fill="none" stroke="#000000" stroke-linecap="round" stroke-miterlimit="10" points="-179.5,11 -190,11 -190,0.5 
			-200,0.5 -200,11 -210.5,11 -210.5,21 -200,21 -200,31.5 -190,31.5 -190,21 -179.5,21 		"/>
	</g>
</g>
<g>
	<g>
		<path fill="none" stroke="#FF0000" stroke-width="3" stroke-linecap="round" stroke-linejoin="round" stroke-miterlimit="10" d="
			M-154,8.1c-0.9-1.1-6.2-4.6-11-4.6c-1.5,0-2.7,0.5-3.9,1.4c-1.2,0.9-1.9,2.1-2.2,3.6c-0.2,0.7-0.2,1.4-0.1,2.1
			c0.1,1.2,0.6,2.3,1.3,3.2c0.2,0.2,0.3,0.4,0.6,0.6c0.3,0.2,0.4,0.5,0.4,0.8c0,0.8,0,1.6,0.1,2.5c0.1,1,0.2,1.9,0.4,2.9
			c0.3,1.9,0.7,3.9,1.4,5.7c0.4,1,0.8,2.1,1.5,2.9c0.3,0.3,0.5,0.6,1,0.7c0.3,0.1,0.6,0,0.8-0.2c0.3-0.3,0.5-0.6,0.6-1
			c0.4-1,0.6-2,0.8-3c0.3-1.4,0.7-2.8,1.3-4.1c0.3-0.7,0.8-1.4,1.5-1.8c0.8-0.4,1.9-0.2,2.5,0.4c0.5,0.5,0.9,1.2,1.2,1.8
			c0.5,1.3,0.8,2.6,1.1,3.9c0.3,1.1,0.5,2.2,1,3.3c0.1,0.2,0.3,0.4,0.5,0.6c0.4,0.3,0.8,0.2,1.3-0.2c0.4-0.3,0.7-0.8,1-1.3
			c0.7-1.2,1.1-2.5,1.4-3.8c0.3-1.2,0.6-2.4,0.8-3.6c0.1-0.6,0.2-1.2,0.2-1.8c0.1-1,0.2-2.1,0.3-3.1c0-0.3,0-0.5,0-0.8
			c0-0.3,0.1-0.5,0.3-0.7c0.8-0.7,1.3-1.5,1.6-2.4c0.3-0.9,0.5-1.8,0.4-2.7c-0.1-1.2-0.6-2.4-1.3-3.4c-0.9-1.1-2-1.9-3.4-2.2
			c-0.7-0.2-1.5-0.2-2.2-0.2c-1.3,0.1-4.3,1.1-5.7,1.6"/>
	</g>
</g>
<path fill="#FFFFFF" d="M-104.2,10.1c-5.6,0-10.1,4.5-10.1,10.1c0,5.6,4.5,10.1,10.1,10.1c5.6,0,10.1-4.5,10.1-10.1
	C-94.1,14.6-98.6,10.1-104.2,10.1z M-102,22v4h-4v-4h-4v-4h4v-4h4v4h4v4H-102z"/>
<g>
	<path fill="none" stroke="#FFFFFF" stroke-width="3" stroke-linecap="round" stroke-linejoin="round" stroke-miterlimit="10" d="
		M-33.5,11.7c0.1-0.5,0.3-1.1,0.3-1.8c0-3.8-3.2-6.8-7.2-6.8c-2.5,0-4.1,1.4-4.1,1.4c-1.1,0.9-2.8,0.9-3.8,0c0,0-1.6-1.4-4.1-1.4
		c-4,0-7.2,3.1-7.2,6.8c0,2.1,1,3.3,1,3.3c0.9,1.1,3.3,7.5,5,7.5H-40"/>
</g>
<path fill="none" stroke="#FFFFFF" stroke-width="3" stroke-linecap="round" stroke-linejoin="round" stroke-miterlimit="10" d="
	M-41.5-21.9c0.2,0,0.7,0.1,0.9,0.2c0.8,0.4,1.2,1.1,1.6,1.8c0.6,1.3,1,2.8,1.3,4.2c0.2,1,0.5,2.1,0.9,3.1c0.1,0.4,0.3,0.8,0.6,1.1
	c0.2,0.2,0.5,0.3,0.9,0.2c0.4-0.1,0.7-0.4,1-0.8c0.7-0.9,1.2-1.9,1.5-3c0.7-1.9,1.1-3.9,1.4-5.9c0.2-1,0.3-2,0.4-3
	c0.1-0.8,0.1-0.8,0.1-0.8c0-0.9,0.8-2.6,1.6-3.6c0,0,1-1.2,1-3.3c0-3.8-3.2-6.8-7.2-6.8c-2.5,0-4.1,1.4-4.1,1.4
	c-0.5,0.5-1.2,0.7-1.9,0.7c-0.7,0-1.4-0.2-1.9-0.7c0,0-1.6-1.4-4.1-1.4c-4,0-7.2,3.1-7.2,6.8c0,2.1,1,3.3,1,3.3
	c0.9,1.1,1.6,2.7,1.6,3.6c0,0,0,0,0.1,0.8c0.1,1,0.2,2,0.4,3c0.3,2,0.7,4,1.4,5.9c0.4,1.1,0.8,2.1,1.5,3c0.3,0.3,0.6,0.6,1,0.8
	c0.4,0.1,0.6,0,0.9-0.2c0.3-0.3,0.5-0.7,0.6-1.1c0.4-1,0.6-2.1,0.9-3.1c0.3-1.4,0.7-2.9,1.3-4.2c0.4-0.7,0.8-1.4,1.6-1.8
	C-42.3-21.8-41.8-21.9-41.5-21.9z"/>
<path fill="#FFFFFF" d="M-37,13.1c-4,4-4,10.4,0,14.3c4,4,10.4,4,14.3,0c4-4,4-10.4,0-14.3C-26.6,9.1-33,9.1-37,13.1z M-27.3,20.2
	l2.8,2.8l-2.8,2.8l-2.8-2.8l-2.8,2.8l-2.8-2.8l2.8-2.8l-2.8-2.8l2.8-2.8l2.8,2.8l2.8-2.8l2.8,2.8L-27.3,20.2z"/>
<line fill="none" stroke="#FFFFFF" stroke-width="3" stroke-linecap="round" stroke-linejoin="round" stroke-miterlimit="10" x1="-52" y1="24.9" x2="-41" y2="24.9"/>
<line fill="none" stroke="#FFFFFF" stroke-width="3" stroke-linecap="round" stroke-linejoin="round" stroke-miterlimit="10" x1="-50" y1="29.5" x2="-43" y2="29.5"/>
<g>
	<path fill="none" stroke="#FFFFFF" stroke-width="3" stroke-linecap="round" stroke-linejoin="round" stroke-miterlimit="10" d="
		M101.6,20.7"/>
	
		<rect x="88.7" y="3.1" fill="none" stroke="#FFFFFF" stroke-width="3" stroke-linecap="round" stroke-linejoin="round" stroke-miterlimit="10" width="19.5" height="26.4"/>
	<path fill="none" stroke="#FFFFFF" stroke-width="3" stroke-linecap="round" stroke-linejoin="round" stroke-miterlimit="10" d="
		M88.7,29.5c0,0-2.9-1.3-9.7-1.3c-6.8,0-9.7,1.3-9.7,1.3V3.1c0,0,2.9-1.3,9.7-1.3s9.7,1.3,9.7,1.3V29.5z"/>
</g>
<g>
	<path fill="none" stroke="#FFFFFF" stroke-width="3" stroke-linecap="round" stroke-linejoin="round" stroke-miterlimit="10" d="
		M61.3,20.7"/>
	
		<path fill="none" stroke="#FFFFFF" stroke-width="2.1689" stroke-linecap="round" stroke-linejoin="round" stroke-miterlimit="10" d="
		M67.9,10.2H52.3c-2,0-3.6-1.6-3.6-3.6v0c0-2,1.6-3.6,3.6-3.6h15.6"/>
	<path fill="none" stroke="#FFFFFF" stroke-width="3" stroke-linecap="round" stroke-linejoin="round" stroke-miterlimit="10" d="
		M67.9,3.1v26.4c0,0-9.5,0-12,0c-4,0-7.2-3.1-7.2-6.8V7.9"/>
</g>
<line fill="none" stroke="#FFFFFF" stroke-width="3" stroke-linejoin="round" stroke-miterlimit="10" x1="92.7" y1="7.7" x2="104.2" y2="7.7"/>
<line fill="none" stroke="#FFFFFF" stroke-width="3" stroke-linejoin="round" stroke-miterlimit="10" x1="92.6" y1="12.5" x2="104.2" y2="12.5"/>
<line fill="none" stroke="#FFFFFF" stroke-width="3" stroke-linejoin="round" stroke-miterlimit="10" x1="73.2" y1="20" x2="84.8" y2="20"/>
<g>
	<path fill="#FFFFFF" d="M81.8,9.6v2.5h-5.6V9.6H81.8 M84.8,6.6H73.2v8.5h11.6V6.6L84.8,6.6z"/>
</g>
<path fill="#FFFFFF" d="M24,13.1c-4,4-4,10.4,0,14.3c4,4,10.4,4,14.3,0c4-4,4-10.4,0-14.3C34.4,9.1,28,9.1,24,13.1z M35.4,20.2
	L28,25.8l0-11.3L35.4,20.2z"/>
<rect x="3.8" y="6.9" fill="none" stroke="#FFFFFF" stroke-width="3" stroke-linecap="round" stroke-linejoin="round" stroke-miterlimit="10" width="19.6" height="23.4"/>
<path fill="none" stroke="#FFFFFF" stroke-width="3" stroke-linecap="round" stroke-linejoin="round" stroke-miterlimit="10" d="
	M27.3,27V2.6H11.2c-2.8,0-4.4,0.8-5.6,1.8c0,0-0.8,0.7-1,0.9C3.8,6.2,3.8,6.9,5.9,6.9"/>
<line fill="none" stroke="#FFFFFF" stroke-width="3" stroke-linejoin="round" stroke-miterlimit="10" x1="7.8" y1="12.5" x2="19.4" y2="12.5"/>
<line fill="none" stroke="#FFFFFF" stroke-width="3" stroke-linejoin="round" stroke-miterlimit="10" x1="7.8" y1="17.4" x2="19.4" y2="17.4"/>
</svg>
