<?xml version="1.0" encoding="utf-8"?>
<!-- Generator: Adobe Illustrator 18.1.1, SVG Export Plug-In . SVG Version: 6.00 Build 0)  -->
<svg version="1.1" id="Layer_1" xmlns="http://www.w3.org/2000/svg" xmlns:xlink="http://www.w3.org/1999/xlink" x="0px" y="0px"
	 viewBox="0 0 88 88" enable-background="new 0 0 88 88" xml:space="preserve">
<path fill="#989DA1" d="M70.9,47.1c-0.5,0-1-0.1-1.5-0.3c-2.2-0.8-3.3-3.3-2.5-5.5c1-2.7,1.5-5.6,1.5-8.5
	c0-13.3-10.9-24.2-24.2-24.2S20.1,19.5,20.1,32.8c0,2.9,0.5,5.8,1.5,8.5c0.8,2.2-0.3,4.7-2.5,5.5c-2.2,0.8-4.7-0.3-5.5-2.5
	c-1.4-3.7-2.1-7.6-2.1-11.5C11.5,14.7,26.2,0,44.3,0s32.8,14.7,32.8,32.8c0,4-0.7,7.8-2.1,11.5C74.3,46,72.7,47.1,70.9,47.1z"/>
<path fill="#989DA1" d="M78,36H10c-4.1,0-7.5,3.4-7.5,7.5c0,3.7,2.6,6.7,6.1,7.4l6.3,32.6c0.5,2.5,2.8,4.6,5.4,4.6H68
	c2.6,0,4.9-2.1,5.4-4.6l6.3-32.5c3.3-0.8,5.8-3.9,5.8-7.4C85.5,39.3,82.1,36,78,36z M31,73c0,2.2-1.8,4-4,4s-4-1.8-4-4V51
	c0-2.2,1.8-4,4-4s4,1.8,4,4V73z M48,73c0,2.2-1.8,4-4,4s-4-1.8-4-4V51c0-2.2,1.8-4,4-4s4,1.8,4,4V73z M65,73c0,2.2-1.8,4-4,4
	s-4-1.8-4-4V51c0-2.2,1.8-4,4-4s4,1.8,4,4V73z"/>
</svg>
